<?xml version="1.0" encoding="UTF-8" standalone="no"?>
<svg
   id="mdi-border-color"
   viewBox="0 0 24 24"
   version="1.1"
   sodipodi:docname="edit.svg"
   inkscape:version="1.4.3 (0d15f75, 2025-12-25)"
   xmlns:inkscape="http://www.inkscape.org/namespaces/inkscape"
   xmlns:sodipodi="http://sodipodi.sourceforge.net/DTD/sodipodi-0.dtd"
   xmlns="http://www.w3.org/2000/svg"
   xmlns:svg="http://www.w3.org/2000/svg">
  <defs
     id="defs1" />
  <sodipodi:namedview
     id="namedview1"
     pagecolor="#ffffff"
     bordercolor="#000000"
     borderopacity="0.25"
     inkscape:showpageshadow="2"
     inkscape:pageopacity="0.0"
     inkscape:pagecheckerboard="0"
     inkscape:deskcolor="#d1d1d1"
     inkscape:zoom="20.25"
     inkscape:cx="12"
     inkscape:cy="12"
     inkscape:window-width="1280"
     inkscape:window-height="730"
     inkscape:window-x="1913"
     inkscape:window-y="582"
     inkscape:window-maximized="1"
     inkscape:current-layer="mdi-border-color" />
  <path
     d="m 20.20875,7.54125 c 0.39,-0.39 0.39,-1.04 0,-1.41 l -2.34,-2.34 c -0.37,-0.39 -1.02,-0.39 -1.41,0 l -1.96,1.96 3.75,3.75 m -1,1 -3.75,-3.75 -10,10 v 3.75 h 3.75 z"
     id="path1" />
  <path
     style="fill:#e0ca00;stroke-width:0.0493827;fill-opacity:1"
     d="m 3.5061728,18.629538 v -1.864289 l 4.9876593,-4.987476 4.9876589,-4.9874761 1.864106,1.8641059 1.864106,1.8641062 -4.987476,4.987659 -4.9874757,4.987659 H 5.370462 3.5061728 Z"
     id="path2" />
  <path
     style="fill:#e0ca00;fill-opacity:1;stroke-width:0.0493827"
     d="M 16.394815,7.5791146 14.54321,5.7261304 15.555556,4.7213805 c 0.55679,-0.5526124 1.090123,-1.0451722 1.185185,-1.0945773 0.222382,-0.1155755 0.614697,-0.116343 0.839506,-0.00164 0.237444,0.1211473 2.648498,2.5252156 2.777949,2.7699009 0.129314,0.2444241 0.134857,0.6261473 0.01257,0.8654788 -0.07778,0.1522241 -2.027572,2.1715583 -2.096774,2.1715583 -0.01516,0 -0.860793,-0.833843 -1.879176,-1.8529842 z"
     id="path3" />
</svg>
